# xmcd CD database file
#
# Track frame offsets:
#	150
#	18500
#	43610
#
# Disc length: 840 seconds
#
# Revision: 1
# Processed by: cddbd v1.5.1PL2 Copyright (c) Steve Scherf et al.
# Submitted via: CDex 1.51
#
DISCID=1c034603
DTITLE=Marigold Leaf - さよならの月
DYEAR=1996
DGENRE=Rock
TTITLE0=さよならの月
TTITLE1=砂のトランク
TTITLE2=If You Wish
EXTD=YEAR: 1996
EXTT0=
EXTT1=
EXTT2=
PLAYORDER=
